<svg width="12" height="12" viewBox="0 0 12 12" fill="none" xmlns="http://www.w3.org/2000/svg">
<path fill-rule="evenodd" clip-rule="evenodd" d="M0 3.2C0 2.07989 7.45058e-08 1.51984 0.217987 1.09202C0.409733 0.715693 0.715693 0.409733 1.09202 0.217987C1.51984 7.45058e-08 2.07989 0 3.2 0H8.8C9.92013 0 10.4801 7.45058e-08 10.908 0.217987C11.2843 0.409733 11.5903 0.715693 11.782 1.09202C12 1.51984 12 2.07989 12 3.2V8.8C12 9.92013 12 10.4801 11.782 10.908C11.5903 11.2843 11.2843 11.5903 10.908 11.782C10.4801 12 9.92013 12 8.8 12H3.2C2.07989 12 1.51984 12 1.09202 11.782C0.715693 11.5903 0.409733 11.2843 0.217987 10.908C7.45058e-08 10.4801 0 9.92013 0 8.8V3.2ZM1.33333 4.66667C1.33333 4.29848 1.63181 4 2 4H6C6.3682 4 6.66667 4.29848 6.66667 4.66667C6.66667 5.03487 6.3682 5.33333 6 5.33333H2C1.63181 5.33333 1.33333 5.03487 1.33333 4.66667ZM2 9.33333C1.63181 9.33333 1.33333 9.6318 1.33333 10C1.33333 10.3682 1.63181 10.6667 2 10.6667H6C6.3682 10.6667 6.66667 10.3682 6.66667 10C6.66667 9.6318 6.3682 9.33333 6 9.33333H2ZM1.33333 2C1.33333 1.63181 1.63181 1.33333 2 1.33333H10C10.3682 1.33333 10.6667 1.63181 10.6667 2C10.6667 2.36819 10.3682 2.66667 10 2.66667H2C1.63181 2.66667 1.33333 2.36819 1.33333 2ZM2 6.66667C1.63181 6.66667 1.33333 6.96513 1.33333 7.33333C1.33333 7.70153 1.63181 8 2 8H10C10.3682 8 10.6667 7.70153 10.6667 7.33333C10.6667 6.96513 10.3682 6.66667 10 6.66667H2Z" fill="white"/>
</svg>
