<svg width="12" height="12" viewBox="0 0 12 12" fill="none" xmlns="http://www.w3.org/2000/svg">
<path fill-rule="evenodd" clip-rule="evenodd" d="M2.25 0C1.00736 0 0 1.00736 0 2.25V9.75C0 10.9927 1.00736 12 2.25 12H9.75C10.9927 12 12 10.9927 12 9.75V2.25C12 1.00736 10.9927 0 9.75 0H2.25ZM5.25 9C6.07845 9 6.75 8.32845 6.75 7.5V5.52045L7.27163 5.68717C7.75553 5.8419 8.25 5.48085 8.25 4.9728V4.50675C8.25 4.1805 8.0391 3.89168 7.72837 3.79238L6.22837 3.31282C5.74447 3.1581 5.25 3.51915 5.25 4.0272V6C4.42157 6 3.75 6.67155 3.75 7.5C3.75 8.32845 4.42157 9 5.25 9Z" fill="white"/>
</svg>
