<svg width="14" height="12" viewBox="0 0 14 12" fill="none" xmlns="http://www.w3.org/2000/svg">
<path fill-rule="evenodd" clip-rule="evenodd" d="M12.5734 0.885955C12.1455 0.667969 11.5855 0.667969 10.4654 0.667969H3.53203C2.41192 0.667969 1.85187 0.667969 1.42405 0.885955C1.04772 1.0777 0.741765 1.38366 0.550018 1.75999C0.332031 2.18781 0.332031 2.74786 0.332031 3.86797V8.13463C0.332031 9.25477 0.332031 9.81477 0.550018 10.2426C0.741765 10.619 1.04772 10.9249 1.42405 11.1166C1.85187 11.3346 2.41192 11.3346 3.53203 11.3346H10.4654C11.5855 11.3346 12.1455 11.3346 12.5734 11.1166C12.9497 10.9249 13.2556 10.619 13.4474 10.2426C13.6654 9.81477 13.6654 9.25477 13.6654 8.13463V3.86797C13.6654 2.74786 13.6654 2.18781 13.4474 1.75999C13.2556 1.38366 12.9497 1.0777 12.5734 0.885955ZM6.0075 3.43138C5.56315 3.16566 4.9987 3.4858 4.9987 4.00355V7.99923C4.9987 8.51697 5.56314 8.8371 6.0075 8.57143L9.33896 6.57937C9.77596 6.31804 9.77596 5.6849 9.33896 5.42357L6.0075 3.43138Z" fill="white"/>
</svg>
