<svg width="24" height="24" viewBox="0 0 24 24" fill="none" xmlns="http://www.w3.org/2000/svg">
<path d="M6 4.5C6 3.7 6.7 3 7.5 3H12.5C13.3 3 14 3.7 14 4.5C14 5.3 13.3 6 12.5 6H7.5C6.7 6 6 5.3 6 4.5Z" fill="#F1FF39"/>
<path d="M4.5 8C3.7 8 3 8.7 3 9.5C3 10.3 3.7 11 4.5 11H9.5C10.3 11 11 10.3 11 9.5C11 8.7 10.3 8 9.5 8H4.5Z" fill="#F1FF39"/>
<path d="M5 14.5C5 13.7 5.7 13 6.5 13H11.5C11.6 13 11.7 13 11.8 13C12.1 13.1 12.1 13.4 12 13.7C11.6 14.3 11.3 14.9 11.2 15.6C11.1 15.8 10.9 16 10.7 16H6.5C5.7 16 5 15.3 5 14.5Z" fill="#F1FF39"/>
<path d="M3 19.5C3 18.7 3.7 18 4.5 18H9.5C10.3 18 11 18.7 11 19.5C11 20.3 10.3 21 9.5 21H4.5C3.7 21 3 20.3 3 19.5Z" fill="#F1FF39"/>
<path fill-rule="evenodd" clip-rule="evenodd" d="M17 21C19.2 21 21 19.2 21 17C21 14.8 19.2 13 17 13C14.8 13 13 14.8 13 17C13 19.2 14.8 21 17 21Z" fill="#F1FF39"/>
</svg>
