<svg width="24" height="24" viewBox="0 0 24 24" fill="none" xmlns="http://www.w3.org/2000/svg">
<path d="M7 20C7 19.4 7.4 19 8 19H16C16.6 19 17 19.4 17 20C17 20.6 16.6 21 16 21H8C7.4 21 7 20.6 7 20Z" fill="#F1FF39"/>
<path fill-rule="evenodd" clip-rule="evenodd" d="M7.8 17C6.1 17 5.3 17 4.6 16.7C4 16.4 3.6 16 3.3 15.4C3 14.7 3 13.9 3 12.2V7.8C3 6.1 3 5.3 3.3 4.6C3.6 4 4 3.6 4.6 3.3C5.3 3 6.1 3 7.8 3H16.2C17.9 3 18.7 3 19.4 3.3C20 3.6 20.4 4 20.7 4.6C21 5.3 21 6.1 21 7.8V12.2C21 13.9 21 14.7 20.7 15.4C20.4 16 20 16.4 19.4 16.7C18.7 17 17.9 17 16.2 17H7.8ZM6 7C6 6.4 6.4 6 7 6H14C14.6 6 15 6.4 15 7C15 7.6 14.6 8 14 8H7C6.4 8 6 7.6 6 7ZM7 10C6.4 10 6 10.4 6 11C6 11.6 6.4 12 7 12H9C9.6 12 10 11.6 10 11C10 10.4 9.6 10 9 10H7Z" fill="#F1FF39"/>
</svg>
