<svg width="24" height="24" viewBox="0 0 24 24" fill="none" xmlns="http://www.w3.org/2000/svg">
<path fill-rule="evenodd" clip-rule="evenodd" d="M2.8 20.7C2.4 20.3 2.4 19.7 2.8 19.3C3.2 18.9 3.8 18.9 4.2 19.3L4.5 19.6V16C4.5 15.4 4.9 15 5.5 15C6.1 15 6.5 15.4 6.5 16V19.6L6.8 19.3C7.2 18.9 7.8 18.9 8.2 19.3C8.6 19.7 8.6 20.3 8.2 20.7L6.2 22.7C5.8 23.1 5.2 23.1 4.8 22.7L2.8 20.7Z" fill="#F1FF39"/>
<path fill-rule="evenodd" clip-rule="evenodd" d="M19.3 3.4C18.5 3 17.3 3 15.1 3H9.9C7.7 3 6.5 3 5.7 3.4C4.9 3.8 4.3 4.4 4 5.1C3.5 6 3.5 7.2 3.5 9.4V12.2C3.5 12.5 3.5 12.6 3.6 12.7C3.6 12.8 3.7 12.9 3.8 12.9C3.9 13 4 13 4.3 13H5.5C5.6 13 5.7 13 5.8 12.9L7.6 11.7L7.7 11.6C8.1 11.3 8.5 11.1 8.9 11C9.3 10.9 9.7 10.9 10.1 11C10.5 11.1 10.9 11.4 11.3 11.7L11.4 11.8L13.9 13.6C14.4 13.9 14.4 14 14.5 14C14.6 14 14.6 14 14.7 14C14.7 14 14.8 14 15.3 13.7L15.8 13.4H15.9C16.2 13.2 16.6 13.1 17 13C17.3 12.9 17.7 13 18 13.1C18.4 13.2 18.7 13.4 19 13.6H19.1L21 14.8C21.2 14.9 21.4 14.8 21.4 14.6V9.4C21.4 7.2 21.4 6 21 5.2C20.7 4.4 20.1 3.8 19.3 3.4Z" fill="#F1FF39"/>
<path d="M9.4 13C9.5 13 9.6 13 9.6 13C9.6 13 9.7 13 10.3 13.4L12.8 15.2L12.9 15.3C13.2 15.5 13.6 15.8 14 15.9C14.3 16 14.6 16 15 16C15.4 15.9 15.8 15.8 16.2 15.6H16.3L16.8 15.3C17.3 15.1 17.3 15 17.4 15C17.5 15 17.5 15 17.6 15C17.6 15 17.7 15 18.2 15.3L21.1 17.1C21.3 17.2 21.3 17.2 21.4 17.3C21.4 17.4 21.5 17.4 21.5 17.5C21.5 17.6 21.5 17.7 21.5 17.8C21.4 18.2 21.3 18.5 21.2 18.7C20.8 19.5 20.2 20.1 19.5 20.4C18.6 20.8 17.5 20.8 15.3 20.8H12.5C12.2 20.8 12.1 20.8 12 20.7C11.9 20.7 11.8 20.6 11.8 20.5C11.7 20.4 11.7 20.3 11.7 20V19C11.7 16.9 10.6 15 8.9 13.9C8.7 13.8 8.7 13.5 8.9 13.4C9.2 13 9.3 13 9.4 13Z" fill="#F1FF39"/>
</svg>
