<svg width="18" height="18" viewBox="0 0 18 18" fill="none" xmlns="http://www.w3.org/2000/svg">
<path fill-rule="evenodd" clip-rule="evenodd" d="M0.3 1.6C-5.96046e-08 2.3 0 3.1 0 4.8V13.2C0 14.9 -5.96046e-08 15.7 0.3 16.4C0.6 17 1 17.4 1.6 17.7C2.3 18 3.1 18 4.8 18H13.2C14.9 18 15.7 18 16.4 17.7C17 17.4 17.4 17 17.7 16.4C18 15.8 18 14.9 18 13.2V4.8C18 3.1 18 2.3 17.7 1.6C17.4 1 17 0.6 16.4 0.3C15.7 -5.96046e-08 14.9 0 13.2 0H4.8C3.1 0 2.3 -5.96046e-08 1.6 0.3C1.1 0.6 0.6 1.1 0.3 1.6ZM12 7C12 7.6 12.4 8 13 8C13.6 8 14 7.6 14 7V6H15C15.6 6 16 5.6 16 5C16 4.4 15.6 4 15 4H14V3C14 2.4 13.6 2 13 2C12.4 2 12 2.4 12 3V4H11C10.4 4 10 4.4 10 5C10 5.6 10.4 6 11 6H12V7ZM2 5C2 4.4 2.4 4 3 4H7C7.6 4 8 4.4 8 5C8 5.6 7.6 6 7 6H3C2.4 6 2 5.6 2 5ZM11 10C10.4 10 10 10.4 10 11C10 11.6 10.4 12 11 12H15C15.6 12 16 11.6 16 11C16 10.4 15.6 10 15 10H11ZM10 15C10 14.4 10.4 14 11 14H15C15.6 14 16 14.4 16 15C16 15.6 15.6 16 15 16H11C10.4 16 10 15.6 10 15ZM4.2 10.8C3.8 10.4 3.2 10.4 2.8 10.8C2.4 11.2 2.4 11.8 2.8 12.2L3.6 13L2.8 13.8C2.4 14.2 2.4 14.8 2.8 15.2C3.2 15.6 3.8 15.6 4.2 15.2L5 14.4L5.8 15.2C6.2 15.6 6.8 15.6 7.2 15.2C7.6 14.8 7.6 14.2 7.2 13.8L6.4 13L7.2 12.2C7.6 11.8 7.6 11.2 7.2 10.8C6.8 10.4 6.2 10.4 5.8 10.8L5 11.6L4.2 10.8Z" fill="#F1FF39"/>
</svg>
