<svg width="18" height="18" viewBox="0 0 18 18" fill="none" xmlns="http://www.w3.org/2000/svg">
<path fill-rule="evenodd" clip-rule="evenodd" d="M8 1.95792C8 1.65792 8.3 1.35792 8.6 1.45792L11.6 2.15792C11.8 2.25792 12 2.45792 12 2.65792V7.45792C12 7.75792 11.8 7.95792 11.5 7.95792H8.5C8.2 7.95792 8 7.75792 8 7.45792V1.95792ZM5.5 7.95792C5.8 7.95792 6 7.75792 6 7.45792V1.25792C6 1.05792 5.8 0.857919 5.6 0.757919L2.5 0.0579192C1.2 -0.242081 0 0.657919 0 1.95792V7.45792C0 7.75792 0.2 7.95792 0.5 7.95792H5.5ZM0 10.4579C0 10.1579 0.2 9.95792 0.5 9.95792H5.5C5.8 9.95792 6 10.1579 6 10.4579V16.6579C6 16.8579 5.8 17.0579 5.6 17.1579L2.5 17.9579C1.2 18.1579 0 17.2579 0 15.9579V10.4579ZM8 10.4579C8 10.1579 8.2 9.95792 8.5 9.95792H11.5C11.8 9.95792 12 10.1579 12 10.4579V15.2579C12 15.4579 11.8 15.6579 11.6 15.7579L8.6 16.4579C8.3 16.5579 8 16.2579 8 15.9579V10.4579ZM14.5 9.95792C14.2 9.95792 14 10.1579 14 10.4579V14.5579C14 14.8579 14.3 15.1579 14.6 15.0579L16.4 14.6579C17.3 14.4579 17.9 13.6579 17.9 12.7579V10.5579C17.9 10.2579 17.7 10.0579 17.4 10.0579H14.5V9.95792ZM17.5 7.95792C17.8 7.95792 18 7.75792 18 7.45792V5.25792C18 4.35792 17.4 3.55792 16.5 3.35792L14.7 2.95792C14.3 2.75792 14 3.05792 14 3.35792V7.45792C14 7.75792 14.2 7.95792 14.5 7.95792H17.5Z" fill="#F1FF39"/>
</svg>
