<svg width="18" height="18" viewBox="0 0 18 18" fill="none" xmlns="http://www.w3.org/2000/svg">
<path d="M17.7 1.6C17.4 1 17 0.6 16.4 0.3C15.7 -5.96046e-08 14.9 0 13.2 0H4.8C3.1 0 2.3 -5.96046e-08 1.6 0.3C1 0.6 0.6 1 0.3 1.6C-5.96046e-08 2.3 0 3.1 0 4.8V13.2C0 14.9 -5.96046e-08 15.7 0.3 16.4C0.6 17 1 17.4 1.6 17.7C2.3 18 3.1 18 4.8 18H13.2C14.9 18 15.7 18 16.4 17.7C17 17.4 17.4 17 17.7 16.4C18 15.8 18 14.9 18 13.2V4.8C18 3.1 18 2.3 17.7 1.6ZM9 8H3C2.4 8 2 7.6 2 7C2 6.4 2.4 6 3 6H9C9.6 6 10 6.4 10 7C10 7.6 9.6 8 9 8ZM16 14.2L15.2 14.8L14.9 15.7H13.9L13.1 16.3L12.3 15.7H11.3L11 14.8L10.2 14.2L10.5 13.3L10.2 12.4L11 11.8L11.3 10.9H12.3L13.1 10.3L13.9 10.9H14.9L15.2 11.8L16 12.4L15.7 13.3L16 14.2ZM15 4H3C2.4 4 2 3.6 2 3C2 2.4 2.4 2 3 2H15C15.6 2 16 2.4 16 3C16 3.6 15.6 4 15 4Z" fill="#F1FF39"/>
</svg>
