<svg width="24" height="24" viewBox="0 0 24 24" fill="none" xmlns="http://www.w3.org/2000/svg">
<path d="M19 4C19.6 4 20 4.4 20 5V7C20 7.6 19.6 8 19 8C18.4 8 18 7.6 18 7V5C18 4.4 18.4 4 19 4Z" fill="#F1FF39"/>
<path d="M13 17C13 16.4 12.6 16 12 16C11.4 16 11 16.4 11 17V19C11 19.6 11.4 20 12 20C12.6 20 13 19.6 13 19V17Z" fill="#F1FF39"/>
<path d="M12 4C12.6 4 13 4.4 13 5V9C13 9.6 12.6 10 12 10C11.4 10 11 9.6 11 9V5C11 4.4 11.4 4 12 4Z" fill="#F1FF39"/>
<path d="M6 5C6 4.4 5.6 4 5 4C4.4 4 4 4.4 4 5V9C4 9.6 4.4 10 5 10C5.6 10 6 9.6 6 9V5Z" fill="#F1FF39"/>
<path d="M6 17C6 16.4 5.6 16 5 16C4.4 16 4 16.4 4 17V19C4 19.6 4.4 20 5 20C5.6 20 6 19.6 6 19V17Z" fill="#F1FF39"/>
<path d="M20 15C20 14.4 19.6 14 19 14C18.4 14 18 14.4 18 15V19C18 19.6 18.4 20 19 20C19.6 20 20 19.6 20 19V15Z" fill="#F1FF39"/>
<path d="M16 9C16 10.7 17.3 12 19 12C20.7 12 22 10.7 22 9C22 7.3 20.7 6 19 6C17.3 6 16 7.3 16 9Z" fill="#F1FF39"/>
<path d="M12 18C10.3 18 9 16.7 9 15C9 13.3 10.3 12 12 12C13.7 12 15 13.3 15 15C15 16.7 13.7 18 12 18Z" fill="#F1FF39"/>
<path d="M5 14C3.3 14 2 12.7 2 11C2 9.3 3.3 8 5 8C6.7 8 8 9.3 8 11C8 12.7 6.7 14 5 14Z" fill="#F1FF39"/>
</svg>
