<svg width="21" height="16" viewBox="0 0 21 16" fill="none" xmlns="http://www.w3.org/2000/svg">
<path d="M8.01562 2C8.01562 0.9 8.91562 0 10.0156 0C11.1156 0 12.0156 0.9 12.0156 2C12.0156 3.1 11.1156 4 10.0156 4C8.91562 4 8.01562 3.1 8.01562 2Z" fill="#F1FF39"/>
<path d="M10.0138 15.9992C13.8138 15.9992 17.2138 14.4992 19.7138 12.0992C20.1138 11.6992 20.1138 11.0992 19.8138 10.6992L14.6138 4.59922C14.4138 4.39922 14.1138 4.29922 13.8138 4.19922C13.5138 4.19922 13.2138 4.29922 13.0138 4.49922C12.3138 5.39922 11.2138 5.89922 10.0138 5.89922C8.81384 5.89922 7.71384 5.39922 7.01384 4.49922C6.81384 4.39922 6.51384 4.29922 6.21384 4.29922C5.91384 4.29922 5.61384 4.39922 5.41384 4.69922L0.213844 10.7992C-0.0861561 11.1992 -0.0861562 11.7992 0.313844 12.1992C2.81384 14.4992 6.21384 15.9992 10.0138 15.9992Z" fill="#F1FF39"/>
</svg>
