<svg width="21" height="20" viewBox="0 0 21 20" fill="none" xmlns="http://www.w3.org/2000/svg">
<path d="M8.6248 0.975C9.1248 -0.325 10.9248 -0.325 11.4248 0.975L13.3248 5.775C13.4248 5.975 13.5248 6.075 13.7248 6.075L18.6248 6.475C19.9248 6.575 20.5248 8.175 19.5248 9.075L15.8248 12.275C15.7248 12.375 15.6248 12.575 15.6248 12.775L16.8248 18.175C17.1248 19.475 15.6248 20.475 14.5248 19.675L10.3248 16.675C10.1248 16.575 9.9248 16.575 9.7248 16.675L5.5248 19.675C4.4248 20.475 2.9248 19.475 3.2248 18.175L4.4248 12.775C4.4248 12.575 4.4248 12.375 4.2248 12.275L0.524796 9.075C-0.475204 8.175 0.0247966 6.575 1.4248 6.475L6.3248 6.075C6.5248 6.075 6.7248 5.975 6.7248 5.775L8.6248 0.975Z" fill="#F1FF39"/>
</svg>
