<svg width="24" height="24" viewBox="0 0 24 24" fill="none" xmlns="http://www.w3.org/2000/svg">
<path fill-rule="evenodd" clip-rule="evenodd" d="M22 12C22 17 18.3 21.1 13.5 21.9C13.2 21.9 13 21.7 13 21.4V14H15C15.6 14 16 13.6 16 13C16 12.4 15.6 12 15 12H13V10C13 9.4 13.4 9 14 9H15C15.6 9 16 8.6 16 8C16 7.4 15.6 7 15 7H14C12.3 7 11 8.3 11 10V12H10C9.4 12 9 12.4 9 13C9 13.6 9.4 14 10 14H11V21.4C11 21.7 10.7 21.9 10.5 21.9C5.7 21.1 2 17 2 12C2 6.5 6.5 2 12 2C17.5 2 22 6.5 22 12Z" fill="#4E4E4E"/>
</svg>
