<svg width="24" height="24" viewBox="0 0 24 24" fill="none" xmlns="http://www.w3.org/2000/svg">
<path fill-rule="evenodd" clip-rule="evenodd" d="M3 7C3 4.8 4.8 3 7 3H17C19.2 3 21 4.8 21 7V17C21 19.2 19.2 21 17 21H7C4.8 21 3 19.2 3 17V7ZM12 10C10.9 10 10 10.9 10 12C10 13.1 10.9 14 12 14C13.1 14 14 13.1 14 12C14 10.9 13.1 10 12 10ZM8 12C8 9.8 9.8 8 12 8C14.2 8 16 9.8 16 12C16 14.2 14.2 16 12 16C9.8 16 8 14.2 8 12ZM17.5 7.5C18.1 7.5 18.5 7.1 18.5 6.5C18.5 5.9 18.1 5.5 17.5 5.5C16.9 5.5 16.5 5.9 16.5 6.5C16.5 7.1 16.9 7.5 17.5 7.5Z" fill="#4E4E4E"/>
</svg>
