<svg width="24" height="24" viewBox="0 0 24 24" fill="none" xmlns="http://www.w3.org/2000/svg">
<path fill-rule="evenodd" clip-rule="evenodd" d="M3 7.8C3 6.1 3 5.3 3.3 4.6C3.6 4 4 3.6 4.6 3.3C5.3 3 6.1 3 7.8 3H16.2C17.9 3 18.7 3 19.4 3.3C20 3.6 20.4 4 20.7 4.6C21 5.3 21 6.1 21 7.8V16.2C21 17.9 21 18.7 20.7 19.4C20.4 20 20 20.4 19.4 20.7C18.7 21 17.9 21 16.2 21H7.8C6.1 21 5.3 21 4.6 20.7C4 20.4 3.6 20 3.3 19.4C3 18.7 3 17.9 3 16.2V7.8ZM7 12C7 11.4 7.4 11 8 11C8.6 11 9 11.4 9 12V16C9 16.6 8.6 17 8 17C7.4 17 7 16.6 7 16V12ZM8 9C8.6 9 9 8.6 9 8C9 7.4 8.6 7 8 7C7.4 7 7 7.4 7 8C7 8.6 7.4 9 8 9ZM14 13C13.4 13 13 13.4 13 14V16C13 16.6 12.6 17 12 17C11.4 17 11 16.6 11 16V14V12C11 11.4 11.4 11 12 11C12.3 11 12.5 11.1 12.7 11.3C13.1 11.1 13.5 11 14 11C15.7 11 17 12.3 17 14V16C17 16.6 16.6 17 16 17C15.4 17 15 16.6 15 16V14C15 13.4 14.6 13 14 13Z" fill="#4E4E4E"/>
</svg>
