<svg width="24" height="24" viewBox="0 0 24 24" fill="none" xmlns="http://www.w3.org/2000/svg">
<path fill-rule="evenodd" clip-rule="evenodd" d="M12 22C17.5 22 22 17.5 22 12C22 6.5 17.5 2 12 2C6.5 2 2 6.5 2 12C2 15.9 4.3 19.4 7.6 21C7.9 21.1 8.2 21 8.3 20.7L9.7 15.5L11 10.8C11.1 10.3 11.7 10 12.2 10.1C12.7 10.2 13 10.8 12.9 11.3L11.8 15.1C13.1 15.4 13.9 15.1 14.5 14.8C15.2 14.3 15.7 13.4 15.8 12.4C15.9 11.4 15.7 10.3 15.1 9.4C14.7 8.6 13.8 8 12.5 8C10.6 8 9.4 8.8 8.9 9.9C8.3 11 8.3 12.4 8.9 13.6C9.1 14.1 8.9 14.7 8.5 14.9C8 15.1 7.4 14.9 7.2 14.5C6.3 12.7 6.3 10.6 7.2 8.9C8.1 7.2 9.9 6 12.5 6C14.5 6 15.9 6.9 16.9 8.2C17.8 9.5 18.2 11.1 18 12.5C17.8 14 17.1 15.5 15.8 16.4C14.7 17.2 13.2 17.4 11.4 17L10.2 21.3C10.1 21.6 10.3 21.9 10.6 21.9C11 22 11.5 22 12 22Z" fill="#4E4E4E"/>
</svg>
