<svg width="24" height="24" viewBox="0 0 24 24" fill="none" xmlns="http://www.w3.org/2000/svg">
<path fill-rule="evenodd" clip-rule="evenodd" d="M3.3 4.6C3 5.3 3 6.1 3 7.8V16.2C3 17.9 3 18.7 3.3 19.4C3.6 20 4 20.4 4.6 20.7C5.3 21 6.1 21 7.8 21H16.2C17.9 21 18.7 21 19.4 20.7C20 20.4 20.4 20 20.7 19.4C21 18.8 21 17.9 21 16.2V7.8C21 6.1 21 5.3 20.7 4.6C20.4 4 20 3.6 19.4 3.3C18.7 3 17.9 3 16.2 3H7.8C6.1 3 5.3 3 4.6 3.3C4.1 3.6 3.6 4.1 3.3 4.6ZM14 7C14 6.4 13.6 6 13 6C12.4 6 12 6.4 12 7V14.5C12 15.3 11.3 16 10.5 16C9.7 16 9 15.3 9 14.5C9 13.8 9.5 13.2 10.2 13C10.7 12.9 11.1 12.4 11 11.8C10.9 11.3 10.4 10.9 9.8 11C8.2 11.4 7 12.8 7 14.5C7 16.4 8.6 18 10.5 18C12.4 18 14 16.4 14 14.5V10.5C14.6 10.8 15.3 11 16 11C16.6 11 17 10.6 17 10C17 9.4 16.6 9 16 9C14.9 9 14 8.1 14 7Z" fill="#4E4E4E"/>
</svg>
