<svg width="24" height="24" viewBox="0 0 24 24" fill="none" xmlns="http://www.w3.org/2000/svg">
<path fill-rule="evenodd" clip-rule="evenodd" d="M5.6 4.2C3.7 4.3 2.3 5.8 2.2 7.7C2.1 9.1 2 10.7 2 12C2 13.3 2.1 14.9 2.2 16.3C2.3 18.2 3.8 19.6 5.6 19.8C7.2 19.9 9.4 20 12 20C14.6 20 16.8 19.9 18.4 19.8C20.3 19.7 21.7 18.2 21.8 16.3C21.9 14.9 22 13.3 22 12C22 10.7 21.9 9.1 21.8 7.7C21.7 5.8 20.2 4.4 18.4 4.2C16.8 4.1 14.6 4 12 4C9.4 4 7.2 4.1 5.6 4.2ZM11.6 9.2C10.9 8.7 10 9.2 10 10V14C10 14.8 10.9 15.3 11.6 14.8L14.6 12.8C15.2 12.4 15.2 11.5 14.6 11.1L11.6 9.2Z" fill="#4E4E4E"/>
</svg>
