<svg width="24" height="24" viewBox="0 0 24 24" fill="none" xmlns="http://www.w3.org/2000/svg">
<path fill-rule="evenodd" clip-rule="evenodd" d="M12 22C17.5 22 22 17.5 22 12C22 6.5 17.5 2 12 2C6.5 2 2 6.5 2 12C2 17.5 6.5 22 12 22ZM10 9C10 8.4 10.4 8 11 8H13C13.6 8 14 8.4 14 9C14 9.6 14.4 10 15 10C15.6 10 16 9.6 16 9C16 7.3 14.7 6 13 6V5C13 4.4 12.6 4 12 4C11.4 4 11 4.4 11 5V6C9.3 6 8 7.3 8 9V9.6C8 10.9 8.8 12 10.1 12.4L13.4 13.5C13.8 13.6 14.1 14 14.1 14.4V15C14.1 15.6 13.7 16 13.1 16H11.1C10.5 16 10.1 15.6 10.1 15C10.1 14.4 9.7 14 9.1 14C8.5 14 8.1 14.4 8.1 15C8.1 16.7 9.4 18 11.1 18V19C11.1 19.6 11.5 20 12.1 20C12.7 20 13.1 19.6 13.1 19V18C14.8 18 16.1 16.7 16.1 15V14.4C16.1 13.1 15.3 12 14 11.6L10.7 10.5C10.3 10.4 10 10 10 9.6V9Z" fill="#F1FF39"/>
</svg>
