<svg width="201" height="44" viewBox="0 0 201 44" fill="none" xmlns="http://www.w3.org/2000/svg">
<path d="M51.4502 30.8942V35.0821H50.0612V32.0908L47.8619 35.0277H46.9938L44.7367 32.0908V35.0277H43.3477V30.8398H45.026L47.3989 33.9944L49.7718 30.8398H51.4502V30.8942Z" fill="white"/>
<path d="M57.5838 30.8942V31.4925H53.764V32.5259H56.9471V33.1241H53.764V34.4295H57.5838V35.0277H52.375V30.8398H57.5838V30.8942Z" fill="white"/>
<path d="M64.3588 31.2713V34.6434C64.3588 34.861 64.1273 35.0785 63.8958 35.0785H58.3398V30.8906H63.8958C64.1273 30.8906 64.3588 31.0538 64.3588 31.2713ZM62.9698 31.4889H59.7288V34.4802H62.9698V31.4889Z" fill="white"/>
<path d="M65.2812 30.8906H66.6702V35.0785H65.2812V30.8906Z" fill="white"/>
<path d="M68.0607 30.8906H73.5588V35.0785H72.1698V33.1749H68.9867V35.0785H67.5977V31.3257C67.5977 31.0538 67.8292 30.8906 68.0607 30.8906ZM68.9867 32.5223H72.1698V31.4889H68.9867V32.5223Z" fill="white"/>
<path d="M83.8017 31.2749V32.5259H82.4127V31.4925H79.2874V34.4838H82.4706V33.7768H81.1973V33.1785H83.8596V34.647C83.8596 34.8646 83.6281 35.0821 83.3966 35.0821H78.3614C78.1299 35.0821 77.8984 34.919 77.8984 34.647V31.2749C77.8984 31.0574 78.0721 30.8398 78.3614 30.8398H83.3966C83.6281 30.8942 83.8017 31.0574 83.8017 31.2749Z" fill="white"/>
<path d="M90.6891 31.2749V33.1785C90.6891 33.3961 90.4576 33.6136 90.2261 33.6136H88.0847L90.8049 35.0277H88.895L86.2327 33.6136V35.0277H84.8438V30.8398H90.284C90.4576 30.8942 90.6891 31.0574 90.6891 31.2749ZM86.117 31.4925V33.0698H89.2422V31.4925H86.117Z" fill="white"/>
<path d="M97.5197 31.2749V34.647C97.5197 34.8646 97.2882 35.0821 97.0567 35.0821H92.0216C91.7901 35.0821 91.5586 34.919 91.5586 34.647V31.2749C91.5586 31.0574 91.7322 30.8398 92.0216 30.8398H97.0567C97.2882 30.8942 97.5197 31.0574 97.5197 31.2749ZM96.1307 31.4925H92.9476V34.4838H96.1307V31.4925Z" fill="white"/>
<path d="M102.96 30.8906H104.349V35.0785H98.9083C98.6768 35.0785 98.4453 34.9153 98.4453 34.6434V30.8906H99.8343V34.4802H102.96V30.8906Z" fill="white"/>
<path d="M111.177 31.2749V33.3417C111.177 33.5592 110.945 33.7768 110.714 33.7768H106.662V35.0277H105.273V30.8398H110.714C111.003 30.8942 111.177 31.0574 111.177 31.2749ZM109.788 33.1785V31.4925H106.662V33.1785H109.788Z" fill="white"/>
<path d="M47.4568 24.4752H55.675V25.9437H43.3477V17.8398H47.4568V24.4752Z" fill="white"/>
<path d="M71.6481 18.6557V25.1279C71.6481 25.563 71.2429 25.9437 70.7799 25.9437H57.7002C57.2372 25.9437 56.832 25.563 56.832 25.1279V18.6557C56.832 18.2206 57.2372 17.8398 57.7002 17.8398H70.7799C71.2429 17.8398 71.6481 18.2206 71.6481 18.6557ZM67.481 19.3083H60.999V24.4752H67.481V19.3083Z" fill="white"/>
<path d="M88.0855 18.6557V21.2119H83.9185V19.3083H77.4365V24.4752H83.9185V23.2243H88.0855V25.1279C88.0855 25.563 87.6804 25.9437 87.2174 25.9437H74.1377C73.6747 25.9437 73.2695 25.563 73.2695 25.1279V18.6557C73.2695 18.2206 73.6747 17.8398 74.1377 17.8398H87.2174C87.7383 17.8398 88.0855 18.2206 88.0855 18.6557Z" fill="white"/>
<path d="M104.582 18.6557V25.1279C104.582 25.563 104.177 25.9437 103.714 25.9437H90.6338C90.1708 25.9437 89.7656 25.563 89.7656 25.1279V18.6557C89.7656 18.2206 90.1708 17.8398 90.6338 17.8398H103.714C104.177 17.8398 104.582 18.2206 104.582 18.6557ZM100.415 19.3083H93.9326V24.4752H100.415V19.3083Z" fill="white"/>
<path d="M125.992 17.8398V25.9437H121.825V20.668L117.138 25.9437H115.054L110.366 20.668V25.9437H106.199V17.8398H111.466L116.038 23.0067L120.61 17.8398H125.992Z" fill="white"/>
<path d="M142.488 18.6557V25.1279C142.488 25.563 142.083 25.9437 141.62 25.9437H128.54C128.077 25.9437 127.672 25.563 127.672 25.1279V18.6557C127.672 18.2206 128.077 17.8398 128.54 17.8398H141.62C142.083 17.8398 142.488 18.2206 142.488 18.6557ZM138.321 19.3083H131.839V24.4752H138.321V19.3083Z" fill="white"/>
<path d="M156.551 17.8398V19.3083H152.037V25.9437H147.87V19.3083H143.355V17.8398H156.551Z" fill="white"/>
<path d="M157.652 17.8398H161.819V25.9437H157.652V17.8398Z" fill="white"/>
<path d="M193.015 17.8398V19.3083H185.086V20.94H191.857V22.4084H185.086V24.4752H193.015V25.9437H180.977V17.8398H193.015Z" fill="white"/>
<path d="M17.4773 6.63672H5.26562V37.366H38.0229V25.8901H17.4773V6.63672Z" fill="#F1FF39"/>
<path d="M37.9669 6.63672H25.2344V18.6021H37.9669V6.63672Z" fill="white"/>
<path d="M167.316 17.8398H162.918L168.937 25.7261L170.905 22.8979L167.316 17.8398Z" fill="white"/>
<path d="M179.877 17.8398H175.479L171.37 23.5506L169.691 25.9437H173.685L179.877 17.8398Z" fill="white"/>
</svg>
