<svg width="15" height="15" viewBox="0 0 15 15" fill="none" xmlns="http://www.w3.org/2000/svg">
<path d="M12.803 12.1968L12.5015 12.4983C11.5703 13.4295 8.12659 13.7483 4.68912 10.3108C1.25162 6.87334 1.56406 3.43579 2.50156 2.49829L2.80847 2.19138C3.29651 1.70333 4.10876 1.78408 4.49162 2.35836L5.75422 4.2522C6.04343 4.68601 5.98623 5.26366 5.61755 5.63233L4.96221 6.28766C4.79481 6.45503 4.73874 6.70209 4.84801 6.91209C5.0472 7.29497 5.46271 7.95941 6.25159 8.74834C7.04053 9.53722 7.7049 9.95272 8.08771 10.1519C8.29778 10.2612 8.54478 10.2051 8.71221 10.0377L9.36753 9.38241C9.73621 9.01372 10.3138 8.95653 10.7477 9.24572L12.6351 10.504C13.2127 10.889 13.2939 11.706 12.803 12.1968Z" fill="#EDFF00"/>
</svg>
