<svg width="55" height="33" viewBox="0 0 55 33" fill="none" xmlns="http://www.w3.org/2000/svg">
<path d="M47.1 2.29923C46.9 2.49923 46.8 2.69923 46.8 2.99923C46.8 3.29923 47 3.69923 47.2 4.09923C47.4 4.39923 47.6 4.69923 47.9 4.89923C48.2 5.09923 48.3 5.09923 48.5 4.99923C48.7 4.89923 48.7 4.49923 48.5 3.99923L48 2.59923C47.7 1.79923 47.8 1.19923 48.2 0.899234C48.4 0.799234 48.7 0.699234 48.9 0.799234C49.2 0.899234 49.4 0.999235 49.6 1.19924C49.8 1.39924 50 1.59923 50.2 1.99923C50.5 2.49923 50.7 2.99923 50.7 3.39923C50.7 3.79923 50.6 4.19923 50.3 4.49923L49.9 3.89923C50.1 3.79923 50.1 3.49923 50.1 3.29923C50.1 3.09923 50 2.69923 49.7 2.29923C49.5 1.99923 49.3 1.79924 49.1 1.69924C48.9 1.59924 48.7 1.59924 48.6 1.69924C48.4 1.79924 48.4 2.19924 48.5 2.69924L49 3.99923C49.2 4.39923 49.2 4.79923 49.2 5.09924C49.2 5.39924 49 5.59923 48.8 5.79923C48.5 5.99923 48.1 5.99923 47.7 5.79923C47.3 5.59923 46.9 5.19923 46.6 4.59923C46.2 3.99923 46 3.49923 46 2.99923C46 2.49923 46.2 2.19923 46.5 1.89923L47.1 2.29923Z" fill="white"/>
<path d="M51.2003 10.4995L51.4003 11.1995C50.9003 11.2995 50.5003 11.1995 50.1003 10.8995C49.7003 10.5995 49.4003 10.0995 49.2003 9.49954C48.9003 8.69954 48.9003 8.09954 49.1003 7.49954C49.3003 6.89954 49.7003 6.59954 50.4003 6.29954C51.0003 6.09954 51.6003 6.09954 52.1003 6.39954C52.6003 6.69954 53.0003 7.19954 53.3003 7.99954C53.5003 8.59954 53.6003 9.09955 53.5003 9.59955C53.4003 10.0995 53.2003 10.3995 52.8003 10.5995L52.5003 9.99954C52.7003 9.89954 52.8003 9.59954 52.9003 9.29954C52.9003 8.99954 52.9003 8.59955 52.8003 8.19955C52.6003 7.69955 52.3003 7.29954 52.0003 7.09954C51.6003 6.89954 51.2003 6.89954 50.8003 6.99954C50.4003 7.19954 50.1003 7.39954 49.9003 7.79954C49.7003 8.19954 49.7003 8.69955 49.9003 9.19955C50.0003 9.59955 50.2003 9.89954 50.5003 10.0995C50.7003 10.3995 50.9003 10.4995 51.2003 10.4995Z" fill="white"/>
<path d="M50.4977 16.2977L51.9977 14.4977L51.8977 13.1977L50.1977 13.2977L50.0977 12.4977L54.2977 12.0977L54.3977 12.8977L54.5977 14.9977C54.5977 15.4977 54.5977 15.8977 54.3977 16.1977C54.1977 16.4977 53.8977 16.6977 53.4977 16.6977C53.0977 16.6977 52.7977 16.5977 52.4977 16.3977C52.2977 16.1977 52.0977 15.7977 52.0977 15.2977L50.5977 17.1977L50.4977 16.2977ZM53.8977 13.0977L52.4977 13.1977L52.6977 15.1977C52.6977 15.4977 52.7977 15.6977 52.8977 15.7977C52.9977 15.8977 53.1977 15.9977 53.3977 15.9977C53.5977 15.9977 53.7977 15.8977 53.8977 15.6977C53.9977 15.4977 53.9977 15.2977 53.9977 15.0977L53.8977 13.0977Z" fill="white"/>
<path d="M51 18.6001C51.5 18.2001 52 18.1001 52.7 18.2001C53.3 18.3001 53.8 18.6001 54.1 19.1001C54.4 19.6001 54.5 20.3001 54.4 21.1001C54.3 21.9001 54 22.6001 53.5 23.0001C53 23.4001 52.5 23.5001 51.8 23.4001C51.2 23.3001 50.7 23.0001 50.4 22.5001C50.1 22.0001 50 21.3001 50.1 20.5001C50.3 19.6001 50.6 19.0001 51 18.6001ZM53.6 19.6001C53.4 19.2001 53 19.0001 52.6 18.9001C52.1 18.8001 51.8 18.9001 51.4 19.2001C51.1 19.5001 50.8 19.9001 50.7 20.5001C50.6 21.1001 50.7 21.6001 50.9 21.9001C51.1 22.3001 51.5 22.5001 51.9 22.6001C52.4 22.7001 52.7 22.6001 53.1 22.3001C53.5 22.0001 53.7 21.6001 53.8 21.0001C53.9 20.5001 53.8 20.0001 53.6 19.6001Z" fill="white"/>
<path d="M49.2984 24.0977L53.1984 25.6977L52.8984 26.3977L49.5984 24.9977L48.4984 27.5977L47.8984 27.3977L49.2984 24.0977Z" fill="white"/>
<path d="M47.3984 28.3984L50.7984 30.7984L50.3984 31.3984L47.4984 29.3984L45.8984 31.7984L45.3984 31.3984L47.3984 28.3984Z" fill="white"/>
<path d="M8.29922 31.2008C8.49922 31.0008 8.59922 30.8008 8.59922 30.5008C8.59922 30.2008 8.39922 29.8008 8.19922 29.4008C7.99922 29.1008 7.79922 28.8008 7.49922 28.6008C7.29922 28.4008 7.09922 28.4008 6.89922 28.5008C6.69922 28.6008 6.69922 29.0008 6.89922 29.5008L7.39922 30.9008C7.69922 31.7008 7.59922 32.3008 7.19922 32.6008C6.99922 32.7008 6.69922 32.8008 6.49922 32.7008C6.29922 32.6008 5.99922 32.5008 5.79922 32.3008C5.59922 32.1008 5.39922 31.9008 5.19922 31.5008C4.89922 31.0008 4.69922 30.5008 4.69922 30.1008C4.69922 29.7008 4.79922 29.3008 5.09922 29.0008L5.49922 29.6008C5.29922 29.7008 5.29922 30.0008 5.29922 30.2008C5.29922 30.4008 5.39922 30.8008 5.69922 31.2008C5.89922 31.5008 6.09922 31.7008 6.29922 31.8008C6.49922 31.9008 6.69922 31.9008 6.79922 31.8008C6.99922 31.7008 6.99922 31.3008 6.89922 30.8008L6.39922 29.5008C6.19922 29.1008 6.19922 28.7008 6.19922 28.4008C6.19922 28.1008 6.39922 27.9008 6.59922 27.7008C6.89922 27.5008 7.29922 27.5008 7.69922 27.7008C8.09922 27.9008 8.49922 28.3008 8.79922 28.9008C9.19922 29.5008 9.39922 30.0008 9.39922 30.5008C9.39922 31.0008 9.19922 31.3008 8.89922 31.6008L8.29922 31.2008Z" fill="white"/>
<path d="M4.19861 22.9992L3.99861 22.2992C4.49861 22.1992 4.89861 22.2992 5.29861 22.5992C5.69861 22.8992 5.99861 23.3992 6.19861 23.9992C6.49861 24.7992 6.49861 25.3992 6.29861 25.9992C5.99861 26.5992 5.59861 26.9992 4.99861 27.1992C4.39861 27.3992 3.79861 27.3992 3.29861 27.0992C2.79861 26.7992 2.39861 26.2992 2.09861 25.4992C1.89861 24.8992 1.79861 24.3992 1.89861 23.8992C1.99861 23.3992 2.19861 23.0992 2.59861 22.8992L2.8986 23.5992C2.69861 23.6992 2.59861 23.9992 2.49861 24.2992C2.49861 24.5992 2.49861 24.9992 2.59861 25.3992C2.79861 25.8992 3.0986 26.2992 3.3986 26.4992C3.7986 26.6992 4.19861 26.6992 4.59861 26.5992C4.99861 26.3992 5.29861 26.1992 5.49861 25.7992C5.69861 25.3992 5.69861 24.8992 5.49861 24.3992C5.39861 23.9992 5.1986 23.6992 4.8986 23.4992C4.6986 23.0992 4.49861 22.9992 4.19861 22.9992Z" fill="white"/>
<path d="M4.89922 17.1977L3.29922 18.9977L3.39922 20.2977L4.99922 20.1977L5.09922 20.9977L0.999219 21.1977L0.899219 20.3977L0.699219 18.2977C0.699219 17.7977 0.699219 17.3977 0.899219 17.0977C1.09922 16.7977 1.39922 16.5977 1.79922 16.5977C2.19922 16.5977 2.49922 16.6977 2.79922 16.8977C2.99922 17.0977 3.19922 17.4977 3.19922 17.9977L4.69922 16.0977L4.89922 17.1977ZM1.49922 20.3977L2.89922 20.2977L2.69922 18.2977C2.69922 17.9977 2.59922 17.7977 2.49922 17.6977C2.39922 17.5977 2.19922 17.4977 1.99922 17.4977C1.79922 17.4977 1.59922 17.5977 1.49922 17.7977C1.39922 17.9977 1.39922 18.1977 1.39922 18.3977L1.49922 20.3977Z" fill="white"/>
<path d="M4.39844 14.9001C3.89844 15.3001 3.39844 15.4001 2.69844 15.3001C2.09844 15.2001 1.59844 14.9001 1.29844 14.4001C0.998438 13.9001 0.898437 13.2001 0.998437 12.4001C1.09844 11.6001 1.39844 11.0001 1.89844 10.6001C2.39844 10.2001 2.89844 10.1001 3.59844 10.2001C4.19844 10.3001 4.69844 10.6001 4.99844 11.1001C5.29844 11.6001 5.39844 12.3001 5.29844 13.1001C5.09844 13.9001 4.79844 14.5001 4.39844 14.9001ZM1.79844 13.9001C1.99844 14.3001 2.39844 14.5001 2.79844 14.6001C3.29844 14.7001 3.59844 14.6001 3.99844 14.3001C4.29844 14.0001 4.59844 13.6001 4.69844 13.0001C4.79844 12.4001 4.69844 11.9001 4.49844 11.6001C4.29844 11.2001 3.89844 11.0001 3.49844 10.9001C2.99844 10.8001 2.69844 10.9001 2.29844 11.2001C1.99844 11.5001 1.69844 11.9001 1.59844 12.5001C1.49844 13.0001 1.59844 13.5001 1.79844 13.9001Z" fill="white"/>
<path d="M6.09922 9.40078L2.19922 7.80078L2.49922 7.00078L5.79922 8.40078L6.89922 5.80078L7.49922 6.00078L6.09922 9.40078Z" fill="white"/>
<path d="M7.99766 5.09922L4.59766 2.69922L4.99766 2.09922L7.89766 4.09922L9.49766 1.69922L9.99766 2.09922L7.99766 5.09922Z" fill="white"/>
</svg>
