<svg width="33" height="55" viewBox="0 0 33 55" fill="none" xmlns="http://www.w3.org/2000/svg">
<path d="M2.29923 8.29922C2.49923 8.49922 2.69923 8.59922 2.99923 8.59922C3.29923 8.59922 3.69923 8.39922 4.09923 8.19922C4.39923 7.99922 4.69923 7.79922 4.89923 7.49922C5.09923 7.19922 5.09923 7.09922 4.99923 6.89922C4.89923 6.69922 4.49923 6.69922 3.99923 6.89922L2.59923 7.39922C1.79923 7.69922 1.19923 7.59922 0.899234 7.19922C0.799234 6.99922 0.699234 6.69922 0.799234 6.49922C0.899234 6.19922 0.999235 5.99922 1.19924 5.79922C1.39924 5.59922 1.59923 5.39922 1.99923 5.19922C2.49923 4.89922 2.99923 4.69922 3.39923 4.69922C3.79923 4.69922 4.19923 4.79922 4.49923 5.09922L3.89923 5.49922C3.79923 5.29922 3.49923 5.29922 3.29923 5.29922C3.09923 5.29922 2.69923 5.39922 2.29923 5.69922C1.99923 5.89922 1.79924 6.09922 1.69924 6.29922C1.59924 6.49922 1.59924 6.69922 1.69924 6.79922C1.79924 6.99922 2.19924 6.99922 2.69924 6.89922L3.99923 6.39922C4.39923 6.19922 4.79923 6.19922 5.09924 6.19922C5.39924 6.19922 5.59923 6.39922 5.79923 6.59922C5.99923 6.89922 5.99923 7.29922 5.79923 7.69922C5.59923 8.09922 5.19923 8.49922 4.59923 8.79922C3.99923 9.19922 3.49923 9.39922 2.99923 9.39922C2.49923 9.39922 2.19923 9.19922 1.89923 8.89922L2.29923 8.29922Z" fill="white"/>
<path d="M10.398 4.30251L11.098 4.10251C11.198 4.60251 11.098 5.00251 10.798 5.40251C10.498 5.80251 9.99798 6.00251 9.39798 6.20251C8.59798 6.50251 7.99798 6.50251 7.39798 6.30251C6.79798 6.10251 6.49798 5.70251 6.19798 5.00251C5.99798 4.40251 5.99798 3.80251 6.29798 3.30251C6.59798 2.80251 7.09798 2.40251 7.89798 2.10251C8.49798 1.90251 8.99798 1.80251 9.49798 1.90251C9.99798 2.00251 10.298 2.20251 10.498 2.60251L9.89798 3.00251C9.79798 2.80251 9.49798 2.70251 9.19798 2.60251C8.89798 2.60251 8.49798 2.60251 8.09798 2.70251C7.59798 2.90251 7.19798 3.20251 6.99798 3.50251C6.79798 3.90251 6.79798 4.30251 6.89798 4.70251C7.09798 5.10251 7.29798 5.40251 7.69798 5.60251C8.09798 5.80251 8.59798 5.80251 9.09798 5.60251C9.49798 5.50251 9.79798 5.30251 9.99798 5.00251C10.398 4.80251 10.398 4.50251 10.398 4.30251Z" fill="white"/>
<path d="M16.3008 4.90078L14.5008 3.40078L13.2008 3.50078L13.3008 5.10078L12.5008 5.20078L12.3008 1.00078H13.0008L15.1008 0.800781C15.6008 0.800781 16.0008 0.800781 16.3008 1.00078C16.6008 1.20078 16.8008 1.50078 16.8008 1.90078C16.8008 2.30078 16.7008 2.60078 16.5008 2.90078C16.3008 3.10078 15.9008 3.30078 15.4008 3.30078L17.3008 4.80078L16.3008 4.90078ZM13.1008 1.60078L13.2008 3.00078L15.2008 2.80078C15.5008 2.80078 15.7008 2.70078 15.8008 2.60078C16.0008 2.40078 16.0008 2.20078 16.0008 2.00078C16.0008 1.80078 15.9008 1.60078 15.7008 1.50078C15.5008 1.40078 15.3008 1.40078 15.1008 1.40078L13.1008 1.60078Z" fill="white"/>
<path d="M18.6001 4.40234C18.2001 3.90234 18.1001 3.40234 18.2001 2.70234C18.3001 2.10234 18.6001 1.60234 19.1001 1.30234C19.6001 1.00234 20.3001 0.902344 21.1001 1.00234C21.9001 1.10234 22.5001 1.40234 22.9001 1.90234C23.3001 2.40234 23.4001 2.90234 23.3001 3.60234C23.2001 4.20234 22.9001 4.70234 22.4001 5.00234C21.9001 5.30234 21.2001 5.40234 20.4001 5.30234C19.6001 5.20234 19.0001 4.90234 18.6001 4.40234ZM19.6001 1.90234C19.2001 2.10234 19.0001 2.50234 18.9001 2.90234C18.8001 3.40234 18.9001 3.70234 19.2001 4.10234C19.5001 4.40234 19.9001 4.70234 20.5001 4.80234C21.1001 4.90234 21.6001 4.80234 21.9001 4.60234C22.3001 4.40234 22.5001 4.00234 22.6001 3.60234C22.7001 3.10234 22.6001 2.80234 22.3001 2.40234C22.0001 2.00234 21.6001 1.80234 21.0001 1.70234C20.4001 1.60234 19.9001 1.60234 19.6001 1.90234Z" fill="white"/>
<path d="M24.0977 6.09922L25.6977 2.19922L26.3977 2.49922L24.9977 5.89922L27.5977 6.99922L27.3977 7.59922L24.0977 6.09922Z" fill="white"/>
<path d="M28.3984 8.09922L30.7984 4.69922L31.3984 5.09922L29.3984 7.99922L31.7984 9.59922L31.3984 10.0992L28.3984 8.09922Z" fill="white"/>
<path d="M31.0992 47.2016C30.8992 47.0016 30.6992 46.9016 30.3992 46.9016C30.0992 46.9016 29.6992 47.1016 29.2992 47.3016C28.9992 47.5016 28.6992 47.7016 28.4992 48.0016C28.2992 48.2016 28.2992 48.4016 28.3992 48.6016C28.4992 48.8016 28.8992 48.8016 29.3992 48.6016L30.7992 48.1016C31.5992 47.8016 32.1992 47.9016 32.4992 48.3016C32.5992 48.5016 32.6992 48.8016 32.5992 49.0016C32.4992 49.2016 32.3992 49.5016 32.1992 49.7016C31.9992 49.9016 31.7992 50.1016 31.3992 50.3016C30.8992 50.6016 30.3992 50.8016 29.9992 50.8016C29.5992 50.8016 29.1992 50.7016 28.8992 50.4016L29.4992 50.0016C29.5992 50.2016 29.8992 50.2016 30.0992 50.2016C30.2992 50.2016 30.6992 50.0016 31.0992 49.8016C31.3992 49.6016 31.5992 49.4016 31.6992 49.2016C31.7992 49.0016 31.7992 48.8016 31.6992 48.7016C31.5992 48.5016 31.1992 48.5016 30.6992 48.6016L29.3992 49.1016C28.9992 49.3016 28.5992 49.3016 28.2992 49.3016C27.9992 49.3016 27.7992 49.1016 27.5992 48.9016C27.3992 48.6016 27.3992 48.2016 27.5992 47.8016C27.7992 47.4016 28.1992 47.0016 28.7992 46.7016C29.3992 46.3016 29.8992 46.1016 30.3992 46.1016C30.8992 46.1016 31.1992 46.3016 31.4992 46.6016L31.0992 47.2016Z" fill="white"/>
<path d="M22.9992 51.2042L22.2992 51.4042C22.1992 50.9042 22.2992 50.5042 22.5992 50.1042C22.8992 49.7042 23.3992 49.4042 23.9992 49.2042C24.7992 48.9042 25.3992 48.9042 25.9992 49.1042C26.5992 49.3042 26.8992 49.7042 27.1992 50.4042C27.3992 51.0042 27.3992 51.6042 27.0992 52.1042C26.7992 52.6042 26.2992 53.0042 25.4992 53.3042C24.8992 53.5042 24.3992 53.6042 23.8992 53.5042C23.3992 53.4042 23.0992 53.2042 22.8992 52.8042L23.5992 52.5042C23.6992 52.7042 23.9992 52.8042 24.2992 52.9042C24.5992 53.0042 24.9992 52.9042 25.3992 52.8042C25.8992 52.6042 26.2992 52.3042 26.4992 52.0042C26.6992 51.6042 26.6992 51.2042 26.5992 50.8042C26.3992 50.4042 26.1992 50.1042 25.7992 49.9042C25.3992 49.7042 24.8992 49.7042 24.3992 49.9042C23.9992 50.0042 23.6992 50.2042 23.4992 50.5042C23.2992 50.8042 22.9992 51.0042 22.9992 51.2042Z" fill="white"/>
<path d="M17.0977 50.6031L18.8977 52.1031L20.1977 52.0031L19.9977 50.3031L20.7977 50.2031L21.1977 54.4031L20.3977 54.5031L18.2977 54.7031C17.7977 54.7031 17.3977 54.7031 17.0977 54.5031C16.7977 54.3031 16.5977 54.0031 16.5977 53.6031C16.5977 53.2031 16.6977 52.9031 16.8977 52.6031C17.0977 52.4031 17.4977 52.2031 17.9977 52.2031L16.0977 50.7031L17.0977 50.6031ZM20.2977 53.9031L20.1977 52.5031L18.1977 52.7031C17.8977 52.7031 17.6977 52.8031 17.5977 52.9031C17.4977 53.0031 17.3977 53.2031 17.3977 53.4031C17.3977 53.6031 17.4977 53.8031 17.6977 53.9031C17.8977 54.0031 18.0977 54.0031 18.2977 54.0031L20.2977 53.9031Z" fill="white"/>
<path d="M14.7986 51.1016C15.1986 51.6016 15.2986 52.1016 15.1986 52.8016C15.0986 53.4016 14.7986 53.9016 14.2986 54.2016C13.7986 54.5016 13.0986 54.6016 12.2986 54.5016C11.4986 54.4016 10.8986 54.1016 10.4986 53.6016C10.0986 53.1016 9.99857 52.6016 10.0986 51.9016C10.1986 51.3016 10.4986 50.8016 10.9986 50.5016C11.4986 50.2016 12.1986 50.1016 12.9986 50.2016C13.7986 50.3016 14.3986 50.6016 14.7986 51.1016ZM13.7986 53.6016C14.1986 53.4016 14.3986 53.0016 14.4986 52.6016C14.5986 52.2016 14.4986 51.8016 14.1986 51.4016C13.8986 51.1016 13.4986 50.8016 12.8986 50.7016C12.2986 50.6016 11.7986 50.7016 11.4986 50.9016C11.0986 51.1016 10.8986 51.5016 10.7986 51.9016C10.6986 52.3016 10.7986 52.7016 11.0986 53.1016C11.3986 53.5016 11.7986 53.7016 12.3986 53.8016C12.9986 53.9016 13.4986 53.9016 13.7986 53.6016Z" fill="white"/>
<path d="M9.29688 49.4039L7.69688 53.3039L6.99688 52.9039L8.39688 49.6039L5.79688 48.5039L5.99688 48.0039L9.29688 49.4039Z" fill="white"/>
<path d="M4.99766 47.4023L2.59766 50.8023L1.99766 50.4023L3.99766 47.5023L1.59766 45.9023L1.99766 45.4023L4.99766 47.4023Z" fill="white"/>
</svg>
