<svg width="18" height="19" viewBox="0 0 18 19" fill="none" xmlns="http://www.w3.org/2000/svg">
<path d="M9 0.199219C4 0.199219 0 4.19922 0 9.19922C0 14.1992 4 18.1992 9 18.1992C14 18.1992 18 14.1992 18 9.19922C18 4.29922 14 0.199219 9 0.199219ZM12.7 7.89922L8.7 11.8992C8.3 12.2992 7.7 12.2992 7.3 11.8992L5.3 9.89922C4.9 9.49922 4.9 8.89922 5.3 8.49922C5.7 8.09922 6.3 8.09922 6.7 8.49922L8 9.79922L11.3 6.49922C11.7 6.09922 12.3 6.09922 12.7 6.49922C13.1 6.89922 13.1 7.49922 12.7 7.89922Z" fill="#F1FF39"/>
</svg>
